<svg width="58" height="58" viewBox="0 0 58 58" fill="none" xmlns="http://www.w3.org/2000/svg">
<mask id="path-1-inside-1_32_2355" fill="white">
<path fill-rule="evenodd" clip-rule="evenodd" d="M29 49C40.0457 49 49 40.0457 49 29C49 17.9543 40.0457 9 29 9V49Z"/>
</mask>
<path fill-rule="evenodd" clip-rule="evenodd" d="M29 49C40.0457 49 49 40.0457 49 29C49 17.9543 40.0457 9 29 9V49Z" fill="white"/>
<path d="M29 49H27V51H29V49ZM29 9V7H27V9H29ZM29 51C41.1503 51 51 41.1503 51 29H47C47 38.9411 38.9411 47 29 47V51ZM51 29C51 16.8497 41.1503 7 29 7V11C38.9411 11 47 19.0589 47 29H51ZM31 49V9H27V49H31Z" fill="white" mask="url(#path-1-inside-1_32_2355)"/>
</svg>
