<svg width="58" height="58" viewBox="0 0 58 58" fill="none" xmlns="http://www.w3.org/2000/svg">
<rect width="58" height="58" fill="#1E1E1E"/>
<mask id="path-2-inside-1_32_2377" fill="white">
<path fill-rule="evenodd" clip-rule="evenodd" d="M22.1575 48.9826C17.7221 43.7811 15 36.7451 15 29C15 21.2549 17.7221 14.219 22.1575 9.01746C11.5025 9.459 3 18.2366 3 29C3 39.7635 11.5025 48.5411 22.1575 48.9826Z"/>
</mask>
<path fill-rule="evenodd" clip-rule="evenodd" d="M22.1575 48.9826C17.7221 43.7811 15 36.7451 15 29C15 21.2549 17.7221 14.219 22.1575 9.01746C11.5025 9.459 3 18.2366 3 29C3 39.7635 11.5025 48.5411 22.1575 48.9826Z" fill="white"/>
<path d="M22.1575 48.9826L22.0747 50.9809L26.6515 51.1706L23.6793 47.6849L22.1575 48.9826ZM22.1575 9.01746L23.6793 10.3151L26.6515 6.8295L22.0747 7.01917L22.1575 9.01746ZM13 29C13 37.2137 15.8871 44.7115 20.6356 50.2803L23.6793 47.6849C19.5571 42.8507 17 36.2765 17 29H13ZM20.6356 7.71977C15.8871 13.2885 13 20.7863 13 29H17C17 21.7235 19.5571 15.1494 23.6793 10.3151L20.6356 7.71977ZM5 29C5 19.3134 12.6523 11.4131 22.2403 11.0157L22.0747 7.01917C10.3528 7.50494 1 17.1597 1 29H5ZM22.2403 46.9843C12.6523 46.587 5 38.6866 5 29H1C1 40.8403 10.3528 50.4951 22.0747 50.9809L22.2403 46.9843Z" fill="white" mask="url(#path-2-inside-1_32_2377)"/>
</svg>
