<svg width="58" height="58" viewBox="0 0 58 58" fill="none" xmlns="http://www.w3.org/2000/svg">
<rect width="58" height="58" fill="#1E1E1E"/>
<mask id="path-2-inside-1_32_2370" fill="white">
<path fill-rule="evenodd" clip-rule="evenodd" d="M18.1986 45.8352C14.9257 41.0887 13 35.2773 13 29C13 22.7227 14.9257 16.9112 18.1986 12.1647C12.6653 15.7221 9 21.933 9 29C9 36.0669 12.6653 42.2778 18.1986 45.8352Z"/>
</mask>
<path fill-rule="evenodd" clip-rule="evenodd" d="M18.1986 45.8352C14.9257 41.0887 13 35.2773 13 29C13 22.7227 14.9257 16.9112 18.1986 12.1647C12.6653 15.7221 9 21.933 9 29C9 36.0669 12.6653 42.2778 18.1986 45.8352Z" fill="white"/>
<path d="M18.1986 45.8352L17.117 47.5175L19.8451 44.6999L18.1986 45.8352ZM18.1986 12.1647L19.8451 13.3L17.117 10.4824L18.1986 12.1647ZM11 29C11 35.691 13.0536 41.897 16.552 46.9706L19.8451 44.6999C16.7977 40.2804 15 34.8635 15 29H11ZM16.5521 11.0293C13.0536 16.1029 11 22.3089 11 29H15C15 23.1364 16.7977 17.7195 19.8451 13.3L16.5521 11.0293ZM11 29C11 22.6418 14.2951 17.052 19.2802 13.847L17.117 10.4824C11.0355 14.3923 7 21.2242 7 29H11ZM19.2802 44.1529C14.2951 40.9479 11 35.3581 11 29H7C7 36.7757 11.0355 43.6076 17.117 47.5175L19.2802 44.1529Z" fill="white" mask="url(#path-2-inside-1_32_2370)"/>
</svg>
