<svg width="58" height="58" viewBox="0 0 58 58" fill="none" xmlns="http://www.w3.org/2000/svg">
<mask id="path-1-inside-1_32_2377" fill="white">
<path fill-rule="evenodd" clip-rule="evenodd" d="M22.1575 48.9827C17.7221 43.7812 15 36.7453 15 29.0002C15 21.255 17.7221 14.2191 22.1575 9.01758C11.5025 9.45913 3 18.2367 3 29.0002C3 39.7636 11.5025 48.5412 22.1575 48.9827Z"/>
</mask>
<path fill-rule="evenodd" clip-rule="evenodd" d="M22.1575 48.9827C17.7221 43.7812 15 36.7453 15 29.0002C15 21.255 17.7221 14.2191 22.1575 9.01758C11.5025 9.45913 3 18.2367 3 29.0002C3 39.7636 11.5025 48.5412 22.1575 48.9827Z" fill="white"/>
<path d="M22.1575 48.9827L22.0747 50.981L26.6515 51.1707L23.6793 47.685L22.1575 48.9827ZM22.1575 9.01758L23.6793 10.3153L26.6515 6.82962L22.0747 7.01929L22.1575 9.01758ZM13 29.0002C13 37.2139 15.8871 44.7116 20.6356 50.2804L23.6793 47.685C19.5571 42.8508 17 36.2767 17 29.0002H13ZM20.6356 7.71989C15.8871 13.2887 13 20.7864 13 29.0002H17C17 21.7236 19.5571 15.1495 23.6793 10.3153L20.6356 7.71989ZM5 29.0002C5 19.3135 12.6523 11.4132 22.2403 11.0159L22.0747 7.01929C10.3528 7.50506 1 17.1599 1 29.0002H5ZM22.2403 46.9844C12.6523 46.5871 5 38.6868 5 29.0002H1C1 40.8404 10.3528 50.4952 22.0747 50.981L22.2403 46.9844Z" fill="white" mask="url(#path-1-inside-1_32_2377)"/>
</svg>
