<svg width="58" height="58" viewBox="0 0 58 58" fill="none" xmlns="http://www.w3.org/2000/svg">
<mask id="path-1-inside-1_32_2389" fill="white">
<path fill-rule="evenodd" clip-rule="evenodd" d="M14.4397 42.7113C12.2451 38.6286 11 33.9597 11 28.9999C11 24.0402 12.2451 19.3712 14.4397 15.2886C11.067 18.8688 9 23.693 9 28.9999C9 34.3069 11.067 39.131 14.4397 42.7113Z"/>
</mask>
<path fill-rule="evenodd" clip-rule="evenodd" d="M14.4397 42.7113C12.2451 38.6286 11 33.9597 11 28.9999C11 24.0402 12.2451 19.3712 14.4397 15.2886C11.067 18.8688 9 23.693 9 28.9999C9 34.3069 11.067 39.131 14.4397 42.7113Z" fill="white"/>
<path d="M14.4397 42.7113L12.984 44.0827L16.2013 41.7643L14.4397 42.7113ZM14.4397 15.2886L16.2013 16.2355L12.984 13.9172L14.4397 15.2886ZM9 28.9999C9 34.2983 10.3309 39.2917 12.6781 43.6582L16.2013 41.7643C14.1593 37.9656 13 33.6211 13 28.9999H9ZM12.6781 14.3416C10.3309 18.7082 9 23.7016 9 28.9999H13C13 24.3787 14.1593 20.0343 16.2013 16.2355L12.6781 14.3416ZM11 28.9999C11 24.2227 12.8584 19.884 15.8955 16.66L12.984 13.9172C9.27556 17.8537 7 23.1633 7 28.9999H11ZM15.8955 41.3399C12.8584 38.1159 11 33.7771 11 28.9999H7C7 34.8366 9.27555 40.1461 12.984 44.0827L15.8955 41.3399Z" fill="white" mask="url(#path-1-inside-1_32_2389)"/>
</svg>
