<svg width="58" height="58" viewBox="0 0 58 58" fill="none" xmlns="http://www.w3.org/2000/svg">
<mask id="path-1-inside-1_32_2368" fill="white">
<path fill-rule="evenodd" clip-rule="evenodd" d="M23.5533 48.2492C19.4762 43.1287 17 36.3868 17 28.9999C17 21.6129 19.4762 14.871 23.5533 9.75049C15.1547 12.1222 9 19.8423 9 28.9999C9 38.1575 15.1547 45.8775 23.5533 48.2492Z"/>
</mask>
<path fill-rule="evenodd" clip-rule="evenodd" d="M23.5533 48.2492C19.4762 43.1287 17 36.3868 17 28.9999C17 21.6129 19.4762 14.871 23.5533 9.75049C15.1547 12.1222 9 19.8423 9 28.9999C9 38.1575 15.1547 45.8775 23.5533 48.2492Z" fill="white"/>
<path d="M23.5533 48.2492L23.0098 50.174L28.9862 51.8616L25.1179 47.0034L23.5533 48.2492ZM23.5533 9.75049L25.1179 10.9963L28.9862 6.13807L23.0098 7.82576L23.5533 9.75049ZM15 28.9999C15 36.8341 17.6264 44.0164 21.9887 49.495L25.1179 47.0034C21.326 42.2411 19 35.9395 19 28.9999H15ZM21.9887 8.5047C17.6264 13.9833 15 21.1656 15 28.9999H19C19 22.0602 21.326 15.7586 25.1179 10.9963L21.9887 8.5047ZM11 28.9999C11 20.7609 16.5371 13.81 24.0968 11.6752L23.0098 7.82576C13.7724 10.4343 7 18.9236 7 28.9999H11ZM24.0968 46.3245C16.5371 44.1897 11 37.2388 11 28.9999H7C7 39.0761 13.7724 47.5654 23.0098 50.174L24.0968 46.3245Z" fill="white" mask="url(#path-1-inside-1_32_2368)"/>
</svg>
