<svg width="58" height="58" viewBox="0 0 58 58" fill="none" xmlns="http://www.w3.org/2000/svg">
<mask id="path-1-inside-1_32_2370" fill="white">
<path fill-rule="evenodd" clip-rule="evenodd" d="M18.1986 45.8351C14.9257 41.0886 13 35.2771 13 28.9998C13 22.7225 14.9257 16.9111 18.1986 12.1646C12.6653 15.722 9 21.9329 9 28.9998C9 36.0668 12.6653 42.2776 18.1986 45.8351Z"/>
</mask>
<path fill-rule="evenodd" clip-rule="evenodd" d="M18.1986 45.8351C14.9257 41.0886 13 35.2771 13 28.9998C13 22.7225 14.9257 16.9111 18.1986 12.1646C12.6653 15.722 9 21.9329 9 28.9998C9 36.0668 12.6653 42.2776 18.1986 45.8351Z" fill="white"/>
<path d="M18.1986 45.8351L17.117 47.5174L19.8451 44.6998L18.1986 45.8351ZM18.1986 12.1646L19.8451 13.2999L17.117 10.4822L18.1986 12.1646ZM11 28.9998C11 35.6908 13.0536 41.8969 16.552 46.9705L19.8451 44.6998C16.7977 40.2803 15 34.8634 15 28.9998H11ZM16.5521 11.0292C13.0536 16.1028 11 22.3088 11 28.9998H15C15 23.1363 16.7977 17.7194 19.8451 13.2999L16.5521 11.0292ZM11 28.9998C11 22.6417 14.2951 17.0519 19.2802 13.8469L17.117 10.4822C11.0355 14.3922 7 21.2241 7 28.9998H11ZM19.2802 44.1528C14.2951 40.9478 11 35.358 11 28.9998H7C7 36.7756 11.0355 43.6075 17.117 47.5174L19.2802 44.1528Z" fill="white" mask="url(#path-1-inside-1_32_2370)"/>
</svg>
