<svg width="58" height="58" viewBox="0 0 58 58" fill="none" xmlns="http://www.w3.org/2000/svg">
<mask id="path-1-inside-1_32_2349" fill="white">
<path fill-rule="evenodd" clip-rule="evenodd" d="M43.5603 42.7114C45.7549 38.6288 47 33.9598 47 29C47 24.0403 45.7549 19.3713 43.5603 15.2887C46.933 18.869 49 23.6931 49 29C49 34.307 46.933 39.1311 43.5603 42.7114Z"/>
</mask>
<path fill-rule="evenodd" clip-rule="evenodd" d="M43.5603 42.7114C45.7549 38.6288 47 33.9598 47 29C47 24.0403 45.7549 19.3713 43.5603 15.2887C46.933 18.869 49 23.6931 49 29C49 34.307 46.933 39.1311 43.5603 42.7114Z" fill="white"/>
<path d="M43.5603 42.7114L45.016 44.0828L41.7987 41.7644L43.5603 42.7114ZM43.5603 15.2887L41.7987 16.2357L45.016 13.9173L43.5603 15.2887ZM49 29C49 34.2984 47.6691 39.2918 45.3219 43.6584L41.7987 41.7644C43.8407 37.9657 45 33.6212 45 29H49ZM45.3219 14.3417C47.6691 18.7083 49 23.7017 49 29H45C45 24.3789 43.8407 20.0344 41.7987 16.2357L45.3219 14.3417ZM47 29C47 24.2229 45.1416 19.8841 42.1045 16.6601L45.016 13.9173C48.7244 17.8538 51 23.1634 51 29H47ZM42.1045 41.34C45.1416 38.116 47 33.7772 47 29H51C51 34.8367 48.7244 40.1463 45.016 44.0828L42.1045 41.34Z" fill="white" mask="url(#path-1-inside-1_32_2349)"/>
</svg>
