<svg width="58" height="58" viewBox="0 0 58 58" fill="none" xmlns="http://www.w3.org/2000/svg">
<mask id="path-1-inside-1_32_2364" fill="white">
<path fill-rule="evenodd" clip-rule="evenodd" d="M28.2525 48.9863C32.4337 43.7844 35 36.747 35 29C35 21.253 32.4337 14.2156 28.2525 9.01371C28.5005 9.0046 28.7497 9 29 9C40.0457 9 49 17.9543 49 29C49 40.0457 40.0457 49 29 49C28.7497 49 28.5005 48.9954 28.2525 48.9863Z"/>
</mask>
<path fill-rule="evenodd" clip-rule="evenodd" d="M28.2525 48.9863C32.4337 43.7844 35 36.747 35 29C35 21.253 32.4337 14.2156 28.2525 9.01371C28.5005 9.0046 28.7497 9 29 9C40.0457 9 49 17.9543 49 29C49 40.0457 40.0457 49 29 49C28.7497 49 28.5005 48.9954 28.2525 48.9863Z" fill="white"/>
<path d="M28.2525 48.9863L28.179 50.9849L24.1975 50.8387L26.6936 47.7333L28.2525 48.9863ZM28.2525 9.01371L26.6936 10.2667L24.1976 7.16136L28.179 7.01506L28.2525 9.01371ZM37 29C37 37.1838 34.2897 44.6678 29.8113 50.2393L26.6936 47.7333C30.5777 42.9011 33 36.3101 33 29H37ZM29.8113 7.76072C34.2897 13.3322 37 20.8162 37 29H33C33 21.6899 30.5777 15.0989 26.6936 10.2667L29.8113 7.76072ZM29 11C28.7742 11 28.5495 11.0041 28.3259 11.0124L28.179 7.01506C28.4515 7.00505 28.7252 7 29 7V11ZM47 29C47 19.0589 38.9411 11 29 11V7C41.1503 7 51 16.8497 51 29H47ZM29 47C38.9411 47 47 38.9411 47 29H51C51 41.1503 41.1503 51 29 51V47ZM28.3259 46.9876C28.5495 46.9958 28.7742 47 29 47V51C28.7252 51 28.4515 50.9949 28.179 50.9849L28.3259 46.9876Z" fill="white" mask="url(#path-1-inside-1_32_2364)"/>
</svg>
