<svg width="112" height="90" viewBox="0 0 112 90" fill="none" xmlns="http://www.w3.org/2000/svg">
<circle cx="53" cy="45" r="20" fill="white"/>
<circle cx="53" cy="45" r="31.5" stroke="white"/>
<g filter="url(#filter0_d_27_3238)">
<path fill-rule="evenodd" clip-rule="evenodd" d="M67.8697 33C63.9424 33 60.7586 36.1838 60.7586 40.1111C60.7586 44.0385 63.9424 47.2222 67.8697 47.2222H90.8889C94.8162 47.2222 98 44.0385 98 40.1111C98 36.1838 94.8162 33 90.8889 33H67.8697ZM8 51.6667C8 47.2484 11.5817 43.6667 16 43.6667H49.6552C54.0734 43.6667 57.6552 47.2484 57.6552 51.6667V53.1482H63.1036C67.5218 53.1482 71.1036 56.7299 71.1036 61.1482V65.2963C71.1036 69.7146 67.5218 73.2963 63.1036 73.2963H29.4484C25.0301 73.2963 21.4484 69.7146 21.4484 65.2963V63.8148H16C11.5817 63.8148 8 60.2331 8 55.8148V51.6667Z" fill="white"/>
</g>
<defs>
<filter id="filter0_d_27_3238" x="0" y="21" width="112" height="62.2963" filterUnits="userSpaceOnUse" color-interpolation-filters="sRGB">
<feFlood flood-opacity="0" result="BackgroundImageFix"/>
<feColorMatrix in="SourceAlpha" type="matrix" values="0 0 0 0 0 0 0 0 0 0 0 0 0 0 0 0 0 0 127 0" result="hardAlpha"/>
<feOffset dx="3" dy="-1"/>
<feGaussianBlur stdDeviation="5.5"/>
<feComposite in2="hardAlpha" operator="out"/>
<feColorMatrix type="matrix" values="0 0 0 0 0 0 0 0 0 0 0 0 0 0 0 0 0 0 0.25 0"/>
<feBlend mode="normal" in2="BackgroundImageFix" result="effect1_dropShadow_27_3238"/>
<feBlend mode="normal" in="SourceGraphic" in2="effect1_dropShadow_27_3238" result="shape"/>
</filter>
</defs>
</svg>
