<svg width="90" height="90" viewBox="0 0 90 90" fill="none" xmlns="http://www.w3.org/2000/svg">
<path fill-rule="evenodd" clip-rule="evenodd" d="M76.5135 28.7838C76.5135 24.3655 72.9318 20.7838 68.5135 20.7838H42.1351C37.7462 20.7838 34.1828 24.318 34.1356 28.6958H29.1624C24.7441 28.6958 21.1624 32.2775 21.1624 36.6958V38.1212C21.1624 39.3445 21.437 40.5038 21.9279 41.5406H11C6.5817 41.5406 2.99998 45.1223 2.99998 49.5406V50.8379C2.99998 55.2562 6.5817 58.8379 11 58.8379H78.027C82.4453 58.8379 86.027 55.2562 86.027 50.8379V49.5406C86.027 45.1223 82.4453 41.5406 78.027 41.5406H69.5981C70.089 40.5038 70.3636 39.3445 70.3636 38.1212V37.8661C73.8899 37.0313 76.5135 33.8626 76.5135 30.0811V28.7838Z" fill="white"/>
<rect width="16.4324" height="12.1081" rx="6.05406" transform="matrix(-1 0 0 1 28.9459 13)" fill="white"/>
<rect x="15.1081" y="62.2974" width="64.5285" height="3.26727" rx="1.63363" fill="white"/>
<rect x="18.3752" y="68.015" width="57.994" height="3.26727" rx="1.63363" fill="white"/>
<rect x="15.925" y="73.7328" width="20.4204" height="3.26727" rx="1.63363" fill="white"/>
<rect x="39.6127" y="73.7328" width="28.5886" height="3.26727" rx="1.63363" fill="white"/>
</svg>
