<svg width="90" height="90" viewBox="0 0 90 90" fill="none" xmlns="http://www.w3.org/2000/svg">
<path fill-rule="evenodd" clip-rule="evenodd" d="M76.5135 28.7838C76.5135 24.3655 72.9318 20.7838 68.5135 20.7838H42.1351C37.7462 20.7838 34.1828 24.318 34.1356 28.6958H29.1624C24.7441 28.6958 21.1624 32.2775 21.1624 36.6958V38.1212C21.1624 39.3445 21.437 40.5038 21.9279 41.5406H11C6.5817 41.5406 2.99999 45.1223 2.99999 49.5406V50.8379C2.99999 55.2562 6.5817 58.8379 11 58.8379H78.027C82.4453 58.8379 86.027 55.2562 86.027 50.8379V49.5406C86.027 45.1223 82.4453 41.5406 78.027 41.5406H69.5981C70.089 40.5038 70.3636 39.3445 70.3636 38.1212V37.8661C73.8899 37.0313 76.5135 33.8626 76.5135 30.0811V28.7838Z" fill="white"/>
<rect width="16.4324" height="12.1081" rx="6.05406" transform="matrix(-1 0 0 1 28.9459 13)" fill="white"/>
<path d="M24.5 62L28.3971 64.25V68.75L24.5 71L20.6029 68.75V64.25L24.5 62Z" fill="white"/>
<path d="M51.8214 74.9327L53.915 77.2184L52.9823 80.1744L49.956 80.8447L47.8624 78.559L48.795 75.603L51.8214 74.9327Z" fill="white"/>
<path d="M69.6001 62.9239L71.2787 64.7566L70.5309 67.1266L68.1045 67.664L66.4259 65.8314L67.1737 63.4613L69.6001 62.9239Z" fill="white"/>
<path d="M13.8214 64.9327L15.915 67.2184L14.9823 70.1744L11.956 70.8447L9.86237 68.559L10.795 65.603L13.8214 64.9327Z" fill="white"/>
<path d="M42.637 64.728L46.0213 66.1401L46.4905 69.7771L43.5753 72.0019L40.191 70.5898L39.7219 66.9528L42.637 64.728Z" fill="white"/>
<path d="M54.9184 60.6954L59.9342 62.7883L60.6296 68.1786L56.3091 71.476L51.2933 69.383L50.5979 63.9927L54.9184 60.6954Z" fill="white"/>
</svg>
