<svg width="98" height="90" viewBox="0 0 98 90" fill="none" xmlns="http://www.w3.org/2000/svg">
<circle cx="49" cy="45" r="20" fill="white"/>
<circle cx="49" cy="45" r="31.5" stroke="white"/>
<g filter="url(#filter0_d_27_3248)">
<path fill-rule="evenodd" clip-rule="evenodd" d="M48.9318 25C47.275 25 45.9318 26.3431 45.9318 28V28.9364C45.9318 30.5932 47.275 31.9364 48.9318 31.9364H72.5909C74.2478 31.9364 75.5909 30.5932 75.5909 28.9364V28C75.5909 26.3431 74.2478 25 72.5909 25H48.9318ZM68.3635 38.8727C66.7066 38.8727 65.3635 40.2158 65.3635 41.8727V42.809C65.3635 44.4659 66.7066 45.809 68.3634 45.809H81.7953C83.4521 45.809 84.7953 44.4659 84.7953 42.809V41.8727C84.7953 40.2158 83.4521 38.8727 81.7953 38.8727H68.3635ZM25.409 56.2136C23.7521 56.2136 22.409 57.5568 22.409 59.2136V60.15C22.409 61.8068 23.7521 63.15 25.409 63.15H38.8408C40.4976 63.15 41.8408 61.8068 41.8408 60.15V59.2136C41.8408 57.5568 40.4976 56.2136 38.8408 56.2136H25.409ZM35.7045 73.0864C35.7045 71.4295 37.0476 70.0864 38.7045 70.0864H62.3636C64.0204 70.0864 65.3636 71.4295 65.3636 73.0864V74.0227C65.3636 75.6796 64.0204 77.0227 62.3636 77.0227H38.7045C37.0476 77.0227 35.7045 75.6796 35.7045 74.0227V73.0864ZM4 38.4046C4 36.7477 5.34315 35.4046 7 35.4046H37.8182C39.475 35.4046 40.8182 36.7477 40.8182 38.4046V38.8727H51.1137C52.7705 38.8727 54.1137 40.2158 54.1137 41.8727V42.809C54.1137 44.4659 52.7705 45.809 51.1137 45.809H20.2955C18.6387 45.809 17.2955 44.4659 17.2955 42.809V42.3409H7.00001C5.34315 42.3409 4 40.9978 4 39.3409V38.4046ZM60.1818 52.7455C58.525 52.7455 57.1818 54.0886 57.1818 55.7455V56.2136H52C50.3431 56.2136 49 57.5568 49 59.2136V60.15C49 61.8068 50.3432 63.15 52 63.15H82.8182C84.475 63.15 85.8182 61.8068 85.8182 60.15V59.6818H91C92.6569 59.6818 94 58.3387 94 56.6819V55.7455C94 54.0886 92.6569 52.7455 91 52.7455H60.1818Z" fill="white"/>
</g>
<defs>
<filter id="filter0_d_27_3248" x="0" y="25" width="98" height="60.0227" filterUnits="userSpaceOnUse" color-interpolation-filters="sRGB">
<feFlood flood-opacity="0" result="BackgroundImageFix"/>
<feColorMatrix in="SourceAlpha" type="matrix" values="0 0 0 0 0 0 0 0 0 0 0 0 0 0 0 0 0 0 127 0" result="hardAlpha"/>
<feOffset dy="4"/>
<feGaussianBlur stdDeviation="2"/>
<feComposite in2="hardAlpha" operator="out"/>
<feColorMatrix type="matrix" values="0 0 0 0 0 0 0 0 0 0 0 0 0 0 0 0 0 0 0.25 0"/>
<feBlend mode="normal" in2="BackgroundImageFix" result="effect1_dropShadow_27_3248"/>
<feBlend mode="normal" in="SourceGraphic" in2="effect1_dropShadow_27_3248" result="shape"/>
</filter>
</defs>
</svg>
