<svg width="24" height="23" viewBox="0 0 24 23" fill="none" xmlns="http://www.w3.org/2000/svg">
<path fill-rule="evenodd" clip-rule="evenodd" d="M4 2H20C21.1046 2 22 2.89543 22 4V5.73999H2V4C2 2.89543 2.89543 2 4 2ZM2 6.73999V18.08C2 19.1846 2.89543 20.08 4 20.08H20C21.1046 20.08 22 19.1846 22 18.08V6.73999H2ZM0 4C0 1.79086 1.79086 0 4 0H20C22.2091 0 24 1.79086 24 4V18.08C24 20.2891 22.2091 22.08 20 22.08H4C1.79086 22.08 0 20.2891 0 18.08V4ZM7.67999 11.04C7.67999 11.8353 7.03528 12.48 6.23999 12.48C5.4447 12.48 4.79999 11.8353 4.79999 11.04C4.79999 10.2447 5.4447 9.59998 6.23999 9.59998C7.03528 9.59998 7.67999 10.2447 7.67999 11.04ZM6.23999 17.28C7.03528 17.28 7.67999 16.6353 7.67999 15.84C7.67999 15.0447 7.03528 14.4 6.23999 14.4C5.4447 14.4 4.79999 15.0447 4.79999 15.84C4.79999 16.6353 5.4447 17.28 6.23999 17.28ZM13.44 11.04C13.44 11.8353 12.7953 12.48 12 12.48C11.2047 12.48 10.56 11.8353 10.56 11.04C10.56 10.2447 11.2047 9.59998 12 9.59998C12.7953 9.59998 13.44 10.2447 13.44 11.04ZM12 17.28C12.7953 17.28 13.44 16.6353 13.44 15.84C13.44 15.0447 12.7953 14.4 12 14.4C11.2047 14.4 10.56 15.0447 10.56 15.84C10.56 16.6353 11.2047 17.28 12 17.28ZM19.2 11.04C19.2 11.8353 18.5553 12.48 17.76 12.48C16.9647 12.48 16.32 11.8353 16.32 11.04C16.32 10.2447 16.9647 9.59998 17.76 9.59998C18.5553 9.59998 19.2 10.2447 19.2 11.04ZM17.76 17.28C18.5553 17.28 19.2 16.6353 19.2 15.84C19.2 15.0447 18.5553 14.4 17.76 14.4C16.9647 14.4 16.32 15.0447 16.32 15.84C16.32 16.6353 16.9647 17.28 17.76 17.28Z" fill="white" fill-opacity="0.5"/>
</svg>
