<svg width="21" height="22" viewBox="0 0 21 22" fill="none" xmlns="http://www.w3.org/2000/svg">
<path fill-rule="evenodd" clip-rule="evenodd" d="M18 10C18 14.4183 14.4183 18 10 18C5.58172 18 2 14.4183 2 10C2 5.58172 5.58172 2 10 2C14.4183 2 18 5.58172 18 10ZM15.7608 18.175C14.1323 19.3246 12.145 20 10 20C4.47715 20 0 15.5228 0 10C0 4.47715 4.47715 0 10 0C15.5228 0 20 4.47715 20 10C20 12.6561 18.9645 15.0703 17.2752 16.8609L20.7071 20.2929C21.0976 20.6834 21.0976 21.3166 20.7071 21.7071C20.3166 22.0976 19.6834 22.0976 19.2929 21.7071L15.7608 18.175Z" fill="white" fill-opacity="0.5"/>
</svg>
