<svg width="29" height="31" viewBox="0 0 29 31" fill="none" xmlns="http://www.w3.org/2000/svg">
<path fill-rule="evenodd" clip-rule="evenodd" d="M21.2051 13.2564C21.2051 17.7171 17.589 21.3333 13.1282 21.3333C8.66743 21.3333 5.05127 17.7171 5.05127 13.2564C5.05127 8.7956 8.66743 5.17944 13.1282 5.17944C17.589 5.17944 21.2051 8.7956 21.2051 13.2564ZM19.6323 24.6037C17.7166 25.704 15.4959 26.3333 13.1282 26.3333C5.90601 26.3333 0.0512695 20.4786 0.0512695 13.2564C0.0512695 6.03418 5.90601 0.179443 13.1282 0.179443C20.3504 0.179443 26.2051 6.03418 26.2051 13.2564C26.2051 16.2998 25.1655 19.1003 23.422 21.3223L27.9729 25.8732C28.9492 26.8495 28.9492 28.4324 27.9729 29.4087C26.9966 30.3851 25.4137 30.3851 24.4373 29.4087L19.6323 24.6037Z" fill="#1E1E1E"/>
</svg>
