<svg width="20" height="22" viewBox="0 0 20 22" fill="none" xmlns="http://www.w3.org/2000/svg">
<path fill-rule="evenodd" clip-rule="evenodd" d="M3 1C3 0.447693 3.44775 0 4 0H19C19.5522 0 20 0.447693 20 1C20 1.55231 19.5522 2 19 2H4C3.44775 2 3 1.55231 3 1ZM1 17C1.55225 17 2 16.5523 2 16C2 15.4477 1.55225 15 1 15C0.447754 15 0 15.4477 0 16C0 16.5523 0.447754 17 1 17ZM4 15C3.44775 15 3 15.4477 3 16C3 16.5523 3.44775 17 4 17H19C19.5522 17 20 16.5523 20 16C20 15.4477 19.5522 15 19 15H4ZM3 21C3 20.4477 3.44775 20 4 20H19C19.5522 20 20 20.4477 20 21C20 21.5523 19.5522 22 19 22H4C3.44775 22 3 21.5523 3 21ZM1 22C1.55225 22 2 21.5523 2 21C2 20.4477 1.55225 20 1 20C0.447754 20 0 20.4477 0 21C0 21.5523 0.447754 22 1 22ZM1 2C1.55225 2 2 1.55231 2 1C2 0.447693 1.55225 0 1 0C0.447754 0 0 0.447693 0 1C0 1.55231 0.447754 2 1 2ZM3 6C3 5.44769 3.44775 5 4 5H19C19.5522 5 20 5.44769 20 6C20 6.55231 19.5522 7 19 7H4C3.44775 7 3 6.55231 3 6ZM1 7C1.55225 7 2 6.55231 2 6C2 5.44769 1.55225 5 1 5C0.447754 5 0 5.44769 0 6C0 6.55231 0.447754 7 1 7ZM3 11C3 10.4477 3.44775 10 4 10H19C19.5522 10 20 10.4477 20 11C20 11.5523 19.5522 12 19 12H4C3.44775 12 3 11.5523 3 11ZM1 12C1.55225 12 2 11.5523 2 11C2 10.4477 1.55225 10 1 10C0.447754 10 0 10.4477 0 11C0 11.5523 0.447754 12 1 12Z" fill="white" fill-opacity="0.5"/>
</svg>
