<svg width="90" height="90" viewBox="0 0 90 90" fill="none" xmlns="http://www.w3.org/2000/svg">
<path fill-rule="evenodd" clip-rule="evenodd" d="M76.5135 28.7838C76.5135 24.3655 72.9318 20.7838 68.5135 20.7838H42.1351C37.7462 20.7838 34.1828 24.318 34.1356 28.6958H29.1624C24.7441 28.6958 21.1624 32.2775 21.1624 36.6958V38.1212C21.1624 39.3445 21.437 40.5038 21.9279 41.5406H11C6.5817 41.5406 2.99998 45.1223 2.99998 49.5406V50.8379C2.99998 55.2562 6.5817 58.8379 11 58.8379H78.027C82.4453 58.8379 86.027 55.2562 86.027 50.8379V49.5406C86.027 45.1223 82.4453 41.5406 78.027 41.5406H69.5981C70.089 40.5038 70.3636 39.3445 70.3636 38.1212V37.8661C73.8899 37.0313 76.5135 33.8626 76.5135 30.0811V28.7838Z" fill="white"/>
<rect width="16.4324" height="12.1081" rx="6.05406" transform="matrix(-1 0 0 1 28.9459 13)" fill="white"/>
<path d="M27 66C27 67.1046 26.1046 68 25 68C23.8954 68 23 67.1046 23 66C23 64.8954 25 62 25 62C25 62 27 64.8954 27 66Z" fill="white"/>
<path d="M40 66C40 67.1046 39.1046 68 38 68C36.8954 68 36 67.1046 36 66C36 64.8954 38 62 38 62C38 62 40 64.8954 40 66Z" fill="white"/>
<path d="M33 75C33 76.1046 32.1046 77 31 77C29.8954 77 29 76.1046 29 75C29 73.8954 31 71 31 71C31 71 33 73.8954 33 75Z" fill="white"/>
<path d="M53 66C53 67.1046 52.1046 68 51 68C49.8954 68 49 67.1046 49 66C49 64.8954 51 62 51 62C51 62 53 64.8954 53 66Z" fill="white"/>
<path d="M46 75C46 76.1046 45.1046 77 44 77C42.8954 77 42 76.1046 42 75C42 73.8954 44 71 44 71C44 71 46 73.8954 46 75Z" fill="white"/>
<path d="M66 66C66 67.1046 65.1046 68 64 68C62.8954 68 62 67.1046 62 66C62 64.8954 64 62 64 62C64 62 66 64.8954 66 66Z" fill="white"/>
<path d="M59 75C59 76.1046 58.1046 77 57 77C55.8954 77 55 76.1046 55 75C55 73.8954 57 71 57 71C57 71 59 73.8954 59 75Z" fill="white"/>
</svg>
