<svg width="90" height="90" viewBox="0 0 90 90" fill="none" xmlns="http://www.w3.org/2000/svg">
<path fill-rule="evenodd" clip-rule="evenodd" d="M76.5135 28.7838C76.5135 24.3655 72.9318 20.7838 68.5135 20.7838H42.1351C37.7462 20.7838 34.1828 24.318 34.1356 28.6958H29.1624C24.7441 28.6958 21.1624 32.2775 21.1624 36.6958V38.1212C21.1624 39.3445 21.437 40.5038 21.9279 41.5406H11C6.5817 41.5406 2.99999 45.1223 2.99999 49.5406V50.8379C2.99999 55.2562 6.5817 58.8379 11 58.8379H78.027C82.4453 58.8379 86.027 55.2562 86.027 50.8379V49.5406C86.027 45.1223 82.4453 41.5406 78.027 41.5406H69.5981C70.089 40.5038 70.3636 39.3445 70.3636 38.1212V37.8661C73.8899 37.0313 76.5135 33.8626 76.5135 30.0811V28.7838Z" fill="white"/>
<rect width="16.4324" height="12.1081" rx="6.05406" transform="matrix(-1 0 0 1 28.9459 13)" fill="white"/>
<rect width="16" height="2" rx="1" transform="matrix(-0.545851 0.837882 0.837882 0.545851 15.7336 57)" fill="white"/>
<rect width="7.49465" height="2" rx="1" transform="matrix(-0.545851 0.837882 0.837882 0.545851 26.7336 57)" fill="white"/>
<rect width="8.63116" height="2" rx="1" transform="matrix(-0.545851 0.837882 0.837882 0.545851 38.2954 57)" fill="white"/>
<path d="M55.0365 67.6343L59.7127 55.7313C59.8813 55.3021 60.3216 55.0439 60.7786 55.1062L69.2525 56.2617C70.0221 56.3666 70.3835 57.2707 69.8982 57.8772L65.8759 62.9051C65.4469 63.4414 65.6737 64.2406 66.3204 64.4716L70.4023 65.9294C71.1197 66.1856 71.2986 67.1179 70.727 67.6215L56.1385 80.4733C55.2735 81.2353 54.0185 80.1704 54.6294 79.1929L60.0438 70.53C60.46 69.864 59.9812 69 59.1958 69H55.9673C55.2624 69 54.7788 68.2904 55.0365 67.6343Z" fill="white"/>
<path d="M16.0365 67.6343L20.7127 55.7313C20.8813 55.3021 21.3216 55.0439 21.7786 55.1062L30.2525 56.2617C31.0221 56.3666 31.3835 57.2707 30.8982 57.8772L26.8759 62.9051C26.4469 63.4414 26.6737 64.2406 27.3204 64.4716L31.4023 65.9294C32.1197 66.1856 32.2986 67.1179 31.727 67.6215L17.1385 80.4733C16.2735 81.2353 15.0185 80.1704 15.6294 79.1929L21.0438 70.53C21.46 69.864 20.9812 69 20.1958 69H16.9673C16.2624 69 15.7788 68.2904 16.0365 67.6343Z" fill="white"/>
<rect width="4.7563" height="2" rx="1" transform="matrix(-0.545851 0.837882 0.837882 0.545851 26.5963 74)" fill="white"/>
<rect width="26.1894" height="2" rx="1" transform="matrix(-0.545851 0.837882 0.837882 0.545851 50.2954 57)" fill="white"/>
<rect width="11.5416" height="2" rx="1" transform="matrix(-0.545851 0.837882 0.837882 0.545851 54.3 70)" fill="white"/>
<rect width="8.62962" height="2" rx="1" transform="matrix(-0.545851 0.837882 0.837882 0.545851 74.2954 57)" fill="white"/>
</svg>
