<svg width="90" height="90" viewBox="0 0 90 90" fill="none" xmlns="http://www.w3.org/2000/svg">
<path fill-rule="evenodd" clip-rule="evenodd" d="M76.5135 28.7838C76.5135 24.3655 72.9318 20.7838 68.5135 20.7838H42.1351C37.7462 20.7838 34.1828 24.318 34.1356 28.6958H29.1624C24.7441 28.6958 21.1624 32.2775 21.1624 36.6958V38.1212C21.1624 39.3445 21.437 40.5038 21.9279 41.5406H11C6.5817 41.5406 2.99999 45.1223 2.99999 49.5406V50.8379C2.99999 55.2562 6.5817 58.8379 11 58.8379H78.027C82.4453 58.8379 86.027 55.2562 86.027 50.8379V49.5406C86.027 45.1223 82.4453 41.5406 78.027 41.5406H69.5981C70.089 40.5038 70.3636 39.3445 70.3636 38.1212V37.8661C73.8899 37.0313 76.5135 33.8626 76.5135 30.0811V28.7838Z" fill="white"/>
<rect width="16.4324" height="12.1081" rx="6.05406" transform="matrix(-1 0 0 1 28.9459 13)" fill="white"/>
<path d="M62.1991 64.3696L65.5705 55.7342C65.7386 55.3036 66.18 55.0443 66.638 55.1071L72.4986 55.9113C73.2665 56.0167 73.6278 56.9177 73.1454 57.5244L70.5346 60.8083C70.1085 61.3442 70.3349 62.1401 70.9792 62.3717L73.4126 63.2462C74.1274 63.5031 74.3062 64.4317 73.7378 64.9356L64.1297 73.4527C63.267 74.2175 62.0086 73.1562 62.6169 72.1768L65.6702 67.261C66.084 66.5948 65.6049 65.7333 64.8207 65.7333H63.1306C62.4267 65.7333 61.9431 65.0254 62.1991 64.3696Z" fill="white"/>
<path d="M15.3777 64.8306L18.9971 55.726C19.1667 55.2994 19.605 55.043 20.0599 55.1043L26.4275 55.9624C27.2005 56.0666 27.562 56.9764 27.0712 57.5827L24.2245 61.0992C23.7898 61.6361 24.0175 62.4415 24.6689 62.6714L27.3825 63.6291C28.1048 63.8841 28.284 64.8233 27.7063 65.3263L17.1553 74.5118C16.2861 75.2686 15.0375 74.1971 15.6535 73.2231L19.1247 67.7345C19.5459 67.0687 19.0674 66.2 18.2796 66.2H16.307C15.6004 66.2 15.1167 65.4872 15.3777 64.8306Z" fill="white"/>
<path d="M34.0293 71.8378L40.2853 55.7364C40.453 55.3047 40.8952 55.0446 41.354 55.1079L52.981 56.711C53.7475 56.8167 54.1087 57.7154 53.6286 58.3221L47.8618 65.6107C47.438 66.1464 47.664 66.9398 48.3064 67.1718L54.4206 69.3797C55.1334 69.637 55.312 70.5629 54.7461 71.0669L34.1231 89.4367C33.262 90.2036 32.001 89.145 32.6073 88.1642L40.914 74.7258C41.3258 74.0596 40.8466 73.2 40.0634 73.2H34.9614C34.2581 73.2 33.7746 72.4933 34.0293 71.8378Z" fill="white"/>
</svg>
