<svg width="58" height="58" viewBox="0 0 58 58" fill="none" xmlns="http://www.w3.org/2000/svg">
<mask id="path-1-inside-1_32_2387" fill="white">
<path fill-rule="evenodd" clip-rule="evenodd" d="M35.8425 48.9826C40.2779 43.7811 43 36.7451 43 29C43 21.2549 40.2779 14.219 35.8425 9.01746C46.4975 9.459 55 18.2366 55 29C55 39.7635 46.4975 48.5411 35.8425 48.9826Z"/>
</mask>
<path fill-rule="evenodd" clip-rule="evenodd" d="M35.8425 48.9826C40.2779 43.7811 43 36.7451 43 29C43 21.2549 40.2779 14.219 35.8425 9.01746C46.4975 9.459 55 18.2366 55 29C55 39.7635 46.4975 48.5411 35.8425 48.9826Z" fill="white"/>
<path d="M35.8425 48.9826L35.9253 50.9809L31.3485 51.1706L34.3207 47.6849L35.8425 48.9826ZM35.8425 9.01746L34.3207 10.3151L31.3485 6.8295L35.9253 7.01917L35.8425 9.01746ZM45 29C45 37.2137 42.1129 44.7115 37.3644 50.2803L34.3207 47.6849C38.4429 42.8507 41 36.2765 41 29H45ZM37.3644 7.71977C42.1129 13.2885 45 20.7863 45 29H41C41 21.7235 38.4429 15.1494 34.3207 10.3151L37.3644 7.71977ZM53 29C53 19.3134 45.3477 11.4131 35.7597 11.0157L35.9253 7.01917C47.6472 7.50494 57 17.1597 57 29H53ZM35.7597 46.9843C45.3477 46.587 53 38.6866 53 29H57C57 40.8403 47.6472 50.4951 35.9253 50.9809L35.7597 46.9843Z" fill="white" mask="url(#path-1-inside-1_32_2387)"/>
</svg>
