<svg width="58" height="58" viewBox="0 0 58 58" fill="none" xmlns="http://www.w3.org/2000/svg">
<rect width="58" height="58" fill="#1E1E1E"/>
<mask id="path-2-inside-1_32_2389" fill="white">
<path fill-rule="evenodd" clip-rule="evenodd" d="M14.4397 42.7114C12.2451 38.6288 11 33.9598 11 29C11 24.0403 12.2451 19.3713 14.4397 15.2887C11.067 18.869 9 23.6931 9 29C9 34.307 11.067 39.1311 14.4397 42.7114Z"/>
</mask>
<path fill-rule="evenodd" clip-rule="evenodd" d="M14.4397 42.7114C12.2451 38.6288 11 33.9598 11 29C11 24.0403 12.2451 19.3713 14.4397 15.2887C11.067 18.869 9 23.6931 9 29C9 34.307 11.067 39.1311 14.4397 42.7114Z" fill="white"/>
<path d="M14.4397 42.7114L12.984 44.0828L16.2013 41.7644L14.4397 42.7114ZM14.4397 15.2887L16.2013 16.2357L12.984 13.9173L14.4397 15.2887ZM9 29C9 34.2984 10.3309 39.2918 12.6781 43.6584L16.2013 41.7644C14.1593 37.9657 13 33.6212 13 29H9ZM12.6781 14.3417C10.3309 18.7083 9 23.7017 9 29H13C13 24.3789 14.1593 20.0344 16.2013 16.2357L12.6781 14.3417ZM11 29C11 24.2229 12.8584 19.8841 15.8955 16.6601L12.984 13.9173C9.27556 17.8538 7 23.1634 7 29H11ZM15.8955 41.34C12.8584 38.116 11 33.7772 11 29H7C7 34.8367 9.27555 40.1463 12.984 44.0828L15.8955 41.34Z" fill="white" mask="url(#path-2-inside-1_32_2389)"/>
</svg>
