<svg width="58" height="58" viewBox="0 0 58 58" fill="none" xmlns="http://www.w3.org/2000/svg">
<rect width="58" height="58" fill="#1E1E1E"/>
<mask id="path-2-inside-1_32_2368" fill="white">
<path fill-rule="evenodd" clip-rule="evenodd" d="M23.5533 48.2494C19.4762 43.1289 17 36.387 17 29C17 21.613 19.4762 14.8711 23.5533 9.75061C15.1547 12.1223 9 19.8424 9 29C9 38.1576 15.1547 45.8777 23.5533 48.2494Z"/>
</mask>
<path fill-rule="evenodd" clip-rule="evenodd" d="M23.5533 48.2494C19.4762 43.1289 17 36.387 17 29C17 21.613 19.4762 14.8711 23.5533 9.75061C15.1547 12.1223 9 19.8424 9 29C9 38.1576 15.1547 45.8777 23.5533 48.2494Z" fill="white"/>
<path d="M23.5533 48.2494L23.0098 50.1741L28.9862 51.8618L25.1179 47.0036L23.5533 48.2494ZM23.5533 9.75061L25.1179 10.9964L28.9862 6.13819L23.0098 7.82588L23.5533 9.75061ZM15 29C15 36.8343 17.6264 44.0165 21.9887 49.4951L25.1179 47.0036C21.326 42.2412 19 35.9397 19 29H15ZM21.9887 8.50482C17.6264 13.9834 15 21.1657 15 29H19C19 22.0603 21.326 15.7588 25.1179 10.9964L21.9887 8.50482ZM11 29C11 20.761 16.5371 13.8102 24.0968 11.6753L23.0098 7.82588C13.7724 10.4345 7 18.9237 7 29H11ZM24.0968 46.3246C16.5371 44.1898 11 37.2389 11 29H7C7 39.0762 13.7724 47.5655 23.0098 50.1741L24.0968 46.3246Z" fill="white" mask="url(#path-2-inside-1_32_2368)"/>
</svg>
