<svg width="58" height="58" viewBox="0 0 58 58" fill="none" xmlns="http://www.w3.org/2000/svg">
<mask id="path-1-inside-1_32_2350" fill="white">
<path fill-rule="evenodd" clip-rule="evenodd" d="M39.8014 45.8352C43.0743 41.0887 45 35.2773 45 29C45 22.7227 43.0743 16.9112 39.8014 12.1647C45.3347 15.7221 49 21.933 49 29C49 36.0669 45.3347 42.2778 39.8014 45.8352Z"/>
</mask>
<path fill-rule="evenodd" clip-rule="evenodd" d="M39.8014 45.8352C43.0743 41.0887 45 35.2773 45 29C45 22.7227 43.0743 16.9112 39.8014 12.1647C45.3347 15.7221 49 21.933 49 29C49 36.0669 45.3347 42.2778 39.8014 45.8352Z" fill="white"/>
<path d="M39.8014 45.8352L40.883 47.5175L38.1549 44.6999L39.8014 45.8352ZM39.8014 12.1647L38.1549 13.3L40.883 10.4824L39.8014 12.1647ZM47 29C47 35.691 44.9464 41.897 41.448 46.9706L38.1549 44.6999C41.2023 40.2804 43 34.8635 43 29H47ZM41.4479 11.0293C44.9464 16.1029 47 22.3089 47 29H43C43 23.1364 41.2023 17.7195 38.1549 13.3L41.4479 11.0293ZM47 29C47 22.6418 43.7049 17.052 38.7198 13.847L40.883 10.4824C46.9645 14.3923 51 21.2242 51 29H47ZM38.7198 44.1529C43.7049 40.9479 47 35.3581 47 29H51C51 36.7757 46.9645 43.6076 40.883 47.5175L38.7198 44.1529Z" fill="white" mask="url(#path-1-inside-1_32_2350)"/>
</svg>
