<svg width="58" height="58" viewBox="0 0 58 58" fill="none" xmlns="http://www.w3.org/2000/svg">
<rect width="58" height="58" fill="#1E1E1E"/>
<mask id="path-2-inside-1_32_2367" fill="white">
<path fill-rule="evenodd" clip-rule="evenodd" d="M21.1205 47.3881C17.2958 42.3837 15 35.9799 15 29.0001C15 22.0203 17.2958 15.6164 21.1205 10.6121C13.9926 13.6705 9 20.7522 9 29.0001C9 37.2479 13.9926 44.3297 21.1205 47.3881Z"/>
</mask>
<path fill-rule="evenodd" clip-rule="evenodd" d="M21.1205 47.3881C17.2958 42.3837 15 35.9799 15 29.0001C15 22.0203 17.2958 15.6164 21.1205 10.6121C13.9926 13.6705 9 20.7522 9 29.0001C9 37.2479 13.9926 44.3297 21.1205 47.3881Z" fill="white"/>
<path d="M21.1205 47.3881L20.3319 49.226L27.341 52.2335L22.7096 46.1736L21.1205 47.3881ZM21.1205 10.6121L22.7096 11.8265L27.341 5.76666L20.3319 8.77411L21.1205 10.6121ZM13 29.0001C13 36.4216 15.4419 43.2517 19.5315 48.6026L22.7096 46.1736C19.1497 41.5158 17 35.5382 17 29.0001H13ZM19.5315 9.39758C15.4419 14.7485 13 21.5786 13 29.0001H17C17 22.462 19.1497 16.4843 22.7096 11.8265L19.5315 9.39758ZM11 29.0001C11 21.5801 15.4899 15.2043 21.9091 12.45L20.3319 8.77411C12.4953 12.1366 7 19.9243 7 29.0001H11ZM21.9091 45.5501C15.4899 42.7958 11 36.42 11 29.0001H7C7 38.0758 12.4952 45.8635 20.3319 49.226L21.9091 45.5501Z" fill="white" mask="url(#path-2-inside-1_32_2367)"/>
</svg>
