<svg width="58" height="58" viewBox="0 0 58 58" fill="none" xmlns="http://www.w3.org/2000/svg">
<mask id="path-1-inside-1_32_2351" fill="white">
<path fill-rule="evenodd" clip-rule="evenodd" d="M36.8795 47.3881C40.7042 42.3837 43 35.9799 43 29.0001C43 22.0203 40.7042 15.6164 36.8795 10.6121C44.0074 13.6705 49 20.7522 49 29.0001C49 37.2479 44.0074 44.3297 36.8795 47.3881Z"/>
</mask>
<path fill-rule="evenodd" clip-rule="evenodd" d="M36.8795 47.3881C40.7042 42.3837 43 35.9799 43 29.0001C43 22.0203 40.7042 15.6164 36.8795 10.6121C44.0074 13.6705 49 20.7522 49 29.0001C49 37.2479 44.0074 44.3297 36.8795 47.3881Z" fill="white"/>
<path d="M36.8795 47.3881L37.6681 49.226L30.659 52.2335L35.2904 46.1736L36.8795 47.3881ZM36.8795 10.6121L35.2904 11.8265L30.659 5.76666L37.6681 8.77411L36.8795 10.6121ZM45 29.0001C45 36.4216 42.5581 43.2517 38.4685 48.6026L35.2904 46.1736C38.8503 41.5158 41 35.5382 41 29.0001H45ZM38.4685 9.39758C42.5581 14.7485 45 21.5786 45 29.0001H41C41 22.462 38.8503 16.4843 35.2904 11.8265L38.4685 9.39758ZM47 29.0001C47 21.5801 42.5101 15.2043 36.0909 12.45L37.6681 8.77411C45.5047 12.1366 51 19.9243 51 29.0001H47ZM36.0909 45.5501C42.5101 42.7958 47 36.42 47 29.0001H51C51 38.0758 45.5048 45.8635 37.6681 49.226L36.0909 45.5501Z" fill="white" mask="url(#path-1-inside-1_32_2351)"/>
</svg>
