<svg width="58" height="58" viewBox="0 0 58 58" fill="none" xmlns="http://www.w3.org/2000/svg">
<mask id="path-1-inside-1_32_2356" fill="white">
<path fill-rule="evenodd" clip-rule="evenodd" d="M34.4467 48.2494C38.5238 43.1289 41 36.387 41 29C41 21.613 38.5238 14.8711 34.4467 9.75061C42.8453 12.1223 49 19.8424 49 29C49 38.1576 42.8453 45.8777 34.4467 48.2494Z"/>
</mask>
<path fill-rule="evenodd" clip-rule="evenodd" d="M34.4467 48.2494C38.5238 43.1289 41 36.387 41 29C41 21.613 38.5238 14.8711 34.4467 9.75061C42.8453 12.1223 49 19.8424 49 29C49 38.1576 42.8453 45.8777 34.4467 48.2494Z" fill="white"/>
<path d="M34.4467 48.2494L34.9902 50.1741L29.0138 51.8618L32.8821 47.0036L34.4467 48.2494ZM34.4467 9.75061L32.8821 10.9964L29.0138 6.13819L34.9902 7.82588L34.4467 9.75061ZM43 29C43 36.8343 40.3736 44.0165 36.0113 49.4951L32.8821 47.0036C36.674 42.2412 39 35.9397 39 29H43ZM36.0113 8.50482C40.3736 13.9834 43 21.1657 43 29H39C39 22.0603 36.674 15.7588 32.8821 10.9964L36.0113 8.50482ZM47 29C47 20.761 41.4629 13.8102 33.9032 11.6753L34.9902 7.82588C44.2276 10.4345 51 18.9237 51 29H47ZM33.9032 46.3246C41.4629 44.1898 47 37.2389 47 29H51C51 39.0762 44.2276 47.5655 34.9902 50.1741L33.9032 46.3246Z" fill="white" mask="url(#path-1-inside-1_32_2356)"/>
</svg>
