<svg width="58" height="58" viewBox="0 0 58 58" fill="none" xmlns="http://www.w3.org/2000/svg">
<rect width="58" height="58" fill="#1E1E1E"/>
<mask id="path-2-inside-1_32_2374" fill="white">
<path fill-rule="evenodd" clip-rule="evenodd" d="M29.7475 48.9863C25.5663 43.7844 23 36.747 23 29C23 21.253 25.5663 14.2156 29.7475 9.01371C29.4995 9.0046 29.2503 9 29 9C17.9543 9 9 17.9543 9 29C9 40.0457 17.9543 49 29 49C29.2503 49 29.4995 48.9954 29.7475 48.9863Z"/>
</mask>
<path fill-rule="evenodd" clip-rule="evenodd" d="M29.7475 48.9863C25.5663 43.7844 23 36.747 23 29C23 21.253 25.5663 14.2156 29.7475 9.01371C29.4995 9.0046 29.2503 9 29 9C17.9543 9 9 17.9543 9 29C9 40.0457 17.9543 49 29 49C29.2503 49 29.4995 48.9954 29.7475 48.9863Z" fill="white"/>
<path d="M29.7475 48.9863L29.821 50.9849L33.8025 50.8387L31.3064 47.7333L29.7475 48.9863ZM29.7475 9.01371L31.3064 10.2667L33.8024 7.16136L29.821 7.01506L29.7475 9.01371ZM21 29C21 37.1838 23.7103 44.6678 28.1887 50.2393L31.3064 47.7333C27.4223 42.9011 25 36.3101 25 29H21ZM28.1887 7.76072C23.7103 13.3322 21 20.8162 21 29H25C25 21.6899 27.4223 15.0989 31.3064 10.2667L28.1887 7.76072ZM29 11C29.2258 11 29.4505 11.0041 29.6741 11.0124L29.821 7.01506C29.5485 7.00505 29.2748 7 29 7V11ZM11 29C11 19.0589 19.0589 11 29 11V7C16.8497 7 7 16.8497 7 29H11ZM29 47C19.0589 47 11 38.9411 11 29H7C7 41.1503 16.8497 51 29 51V47ZM29.6741 46.9876C29.4505 46.9958 29.2258 47 29 47V51C29.2748 51 29.5485 50.9949 29.821 50.9849L29.6741 46.9876Z" fill="white" mask="url(#path-2-inside-1_32_2374)"/>
</svg>
